<?xml version="1.0" encoding="utf-8"?>
<!-- Generated by Mocodo 4.2.8 -->
<svg width="439" height="356" viewBox="0 0 439 356" xmlns="http://www.w3.org/2000/svg">
<rect x="0" y="0" width="439" height="356" fill="#f7f7f7" stroke="none" stroke-width="0"/>

<!-- Association DEFINE -->
<g>
	<line x1="171" y1="212" x2="171" y2="77" stroke="#9970ab" stroke-width="2"/>
	<line x1="58" y1="77" x2="171" y2="77" stroke="#9970ab" stroke-width="2"/>
	<g>
		<path d="M183 52 a14 14 90 0 1 14 14 V77 h-52 V66 a14 14 90 0 1 14 -14" fill="#c2a5cf" stroke="#c2a5cf" stroke-width="0"/>
		<path d="M197 77 v11 a14 14 90 0 1 -14 14 H159 a14 14 90 0 1 -14 -14 V77 H52" fill="#e7d4e8" stroke="#e7d4e8" stroke-width="0"/>
		<rect x="145" y="52" width="52" height="50" fill="none" rx="14" stroke="#9970ab" stroke-width="2"/>
		<line x1="145" y1="77" x2="197" y2="77" stroke="#9970ab" stroke-width="1"/>
		<text x="152" y="69.75" fill="#000000" font-family="Verdana" font-size="12">define</text>
	</g>
	<text x="176" y="162" fill="#1b7837" font-family="Verdana" font-size="12">1,1</text>
	<text x="99" y="94" fill="#1b7837" font-family="Verdana" font-size="12">0,N</text>
</g>

<!-- Association CREATE -->
<g>
	<line x1="285" y1="77" x2="396" y2="77" stroke="#9970ab" stroke-width="2"/>
	<line x1="396" y1="212" x2="396" y2="77" stroke="#9970ab" stroke-width="2"/>
	<g>
		<path d="M409 52 a14 14 90 0 1 14 14 V77 h-54 V66 a14 14 90 0 1 14 -14" fill="#c2a5cf" stroke="#c2a5cf" stroke-width="0"/>
		<path d="M423 77 v11 a14 14 90 0 1 -14 14 H383 a14 14 90 0 1 -14 -14 V77 H54" fill="#e7d4e8" stroke="#e7d4e8" stroke-width="0"/>
		<rect x="369" y="52" width="54" height="50" fill="none" rx="14" stroke="#9970ab" stroke-width="2"/>
		<line x1="369" y1="77" x2="423" y2="77" stroke="#9970ab" stroke-width="1"/>
		<text x="377" y="69.75" fill="#000000" font-family="Verdana" font-size="12">create</text>
	</g>
	<text x="325" y="94" fill="#1b7837" font-family="Verdana" font-size="12">0,N</text>
	<text x="401" y="162" fill="#1b7837" font-family="Verdana" font-size="12">1,1</text>
</g>

<!-- Association HAS -->
<g>
	<line x1="171" y1="212" x2="58" y2="212" stroke="#9970ab" stroke-width="2"/>
	<line x1="58" y1="313" x2="58" y2="212" stroke="#9970ab" stroke-width="2"/>
	<g>
		<path d="M62 187 a14 14 90 0 1 14 14 V212 h-36 V201 a14 14 90 0 1 14 -14" fill="#c2a5cf" stroke="#c2a5cf" stroke-width="0"/>
		<path d="M76 212 v11 a14 14 90 0 1 -14 14 H54 a14 14 90 0 1 -14 -14 V212 H36" fill="#e7d4e8" stroke="#e7d4e8" stroke-width="0"/>
		<rect x="40" y="187" width="36" height="50" fill="none" rx="14" stroke="#9970ab" stroke-width="2"/>
		<line x1="40" y1="212" x2="76" y2="212" stroke="#9970ab" stroke-width="1"/>
		<text x="47" y="204.75" fill="#000000" font-family="Verdana" font-size="12">has</text>
	</g>
	<text x="96" y="229" fill="#1b7837" font-family="Verdana" font-size="12">1,N</text>
	<text x="63" y="271" fill="#1b7837" font-family="Verdana" font-size="12">1,1</text>
</g>

<!-- Association COMPOSE -->
<g>
	<line x1="396" y1="212" x2="285" y2="212" stroke="#9970ab" stroke-width="2"/>
	<line x1="171" y1="212" x2="285" y2="212" stroke="#9970ab" stroke-width="2"/>
	<g>
		<path d="M305 187 a14 14 90 0 1 14 14 V212 h-68 V201 a14 14 90 0 1 14 -14" fill="#c2a5cf" stroke="#c2a5cf" stroke-width="0"/>
		<path d="M319 212 v11 a14 14 90 0 1 -14 14 H265 a14 14 90 0 1 -14 -14 V212 H68" fill="#e7d4e8" stroke="#e7d4e8" stroke-width="0"/>
		<rect x="251" y="187" width="68" height="50" fill="none" rx="14" stroke="#9970ab" stroke-width="2"/>
		<line x1="251" y1="212" x2="319" y2="212" stroke="#9970ab" stroke-width="1"/>
		<text x="258" y="204.75" fill="#000000" font-family="Verdana" font-size="12">compose</text>
	</g>
	<text x="335" y="229" fill="#1b7837" font-family="Verdana" font-size="12">0,N</text>
	<text x="224" y="229" fill="#1b7837" font-family="Verdana" font-size="12">1,1</text>
</g>

<!-- Association VALIDATE -->
<g>
	<line x1="171" y1="212" x2="171" y2="313" stroke="#9970ab" stroke-width="2"/>
	<line x1="58" y1="313" x2="171" y2="313" stroke="#9970ab" stroke-width="2"/>
	<g>
		<path d="M189 288 a14 14 90 0 1 14 14 V313 h-64 V302 a14 14 90 0 1 14 -14" fill="#c2a5cf" stroke="#c2a5cf" stroke-width="0"/>
		<path d="M203 313 v11 a14 14 90 0 1 -14 14 H153 a14 14 90 0 1 -14 -14 V313 H64" fill="#e7d4e8" stroke="#e7d4e8" stroke-width="0"/>
		<rect x="139" y="288" width="64" height="50" fill="none" rx="14" stroke="#9970ab" stroke-width="2"/>
		<line x1="139" y1="313" x2="203" y2="313" stroke="#9970ab" stroke-width="1"/>
		<text x="147" y="305.75" fill="#000000" font-family="Verdana" font-size="12">validate</text>
	</g>
	<text x="176" y="271" fill="#1b7837" font-family="Verdana" font-size="12">1,1</text>
	<text x="112" y="330" fill="#1b7837" font-family="Verdana" font-size="12">0,1</text>
</g>

<!-- Association BELONGS -->
<g>
	<line x1="396" y1="212" x2="396" y2="313" stroke="#9970ab" stroke-width="2"/>
	<line x1="285" y1="313" x2="396" y2="313" stroke="#9970ab" stroke-width="2"/>
	<g>
		<path d="M413 288 a14 14 90 0 1 14 14 V313 h-62 V302 a14 14 90 0 1 14 -14" fill="#c2a5cf" stroke="#c2a5cf" stroke-width="0"/>
		<path d="M427 313 v11 a14 14 90 0 1 -14 14 H379 a14 14 90 0 1 -14 -14 V313 H62" fill="#e7d4e8" stroke="#e7d4e8" stroke-width="0"/>
		<rect x="365" y="288" width="62" height="50" fill="none" rx="14" stroke="#9970ab" stroke-width="2"/>
		<line x1="365" y1="313" x2="427" y2="313" stroke="#9970ab" stroke-width="1"/>
		<text x="372" y="305.75" fill="#000000" font-family="Verdana" font-size="12">belongs</text>
	</g>
	<text x="401" y="271" fill="#1b7837" font-family="Verdana" font-size="12">0,N</text>
	<text x="338" y="330" fill="#1b7837" font-family="Verdana" font-size="12">0,N</text>
</g>

<!-- Entity LEVEL -->
<g>
	<g>
		<rect x="22" y="43" width="72" height="25" fill="#a6dba0" stroke="none" stroke-width="0" opacity="1"/>
		<rect x="22" y="68" width="72" height="43" fill="#d9f0d3" stroke="none" stroke-width="0" opacity="1"/>
		<rect x="22" y="43" width="72" height="68" fill="none" stroke="#5aae61" stroke-width="2" opacity="1"/>
		<line x1="22" y1="68" x2="94" y2="68" stroke="#5aae61" stroke-width="1"/>
	</g>
	<text x="44" y="60.75" fill="#000000" font-family="Verdana" font-size="12">level</text>
	<text x="27" y="85.8" fill="#000000" font-family="Verdana" font-size="12">code level</text>
	<line x1="27" y1="88" x2="88" y2="88" stroke="#000000" stroke-width="1"/>
	<text x="27" y="102.8" fill="#000000" font-family="Verdana" font-size="12">label</text>
</g>

<!-- Entity USER -->
<g>
	<g>
		<rect x="250" y="9" width="70" height="25" fill="#a6dba0" stroke="none" stroke-width="0" opacity="1"/>
		<rect x="250" y="34" width="70" height="111" fill="#d9f0d3" stroke="none" stroke-width="0" opacity="1"/>
		<rect x="250" y="9" width="70" height="136" fill="none" stroke="#5aae61" stroke-width="2" opacity="1"/>
		<line x1="250" y1="34" x2="320" y2="34" stroke="#5aae61" stroke-width="1"/>
	</g>
	<text x="272" y="26.75" fill="#000000" font-family="Verdana" font-size="12">user</text>
	<text x="255" y="51.8" fill="#000000" font-family="Verdana" font-size="12">code user</text>
	<line x1="255" y1="54" x2="314" y2="54" stroke="#000000" stroke-width="1"/>
	<text x="255" y="68.8" fill="#000000" font-family="Verdana" font-size="12">email</text>
	<text x="255" y="85.8" fill="#000000" font-family="Verdana" font-size="12">password</text>
	<text x="255" y="102.8" fill="#000000" font-family="Verdana" font-size="12">firstname</text>
	<text x="255" y="119.8" fill="#000000" font-family="Verdana" font-size="12">lastname</text>
	<text x="255" y="136.8" fill="#000000" font-family="Verdana" font-size="12">role</text>
</g>

<!-- Entity QUESTION -->
<g>
	<g>
		<rect x="123" y="170" width="96" height="25" fill="#a6dba0" stroke="none" stroke-width="0" opacity="1"/>
		<rect x="123" y="195" width="96" height="59" fill="#d9f0d3" stroke="none" stroke-width="0" opacity="1"/>
		<rect x="123" y="170" width="96" height="84" fill="none" stroke="#5aae61" stroke-width="2" opacity="1"/>
		<line x1="123" y1="195" x2="219" y2="195" stroke="#5aae61" stroke-width="1"/>
	</g>
	<text x="145" y="187.75" fill="#000000" font-family="Verdana" font-size="12">question</text>
	<text x="128" y="212.8" fill="#000000" font-family="Verdana" font-size="12">code question</text>
	<line x1="128" y1="215" x2="213" y2="215" stroke="#000000" stroke-width="1"/>
	<text x="128" y="229.8" fill="#000000" font-family="Verdana" font-size="12">title</text>
	<text x="128" y="246.8" fill="#000000" font-family="Verdana" font-size="12">information</text>
</g>

<!-- Entity QUIZ -->
<g>
	<g>
		<rect x="362" y="170" width="68" height="25" fill="#a6dba0" stroke="none" stroke-width="0" opacity="1"/>
		<rect x="362" y="195" width="68" height="59" fill="#d9f0d3" stroke="none" stroke-width="0" opacity="1"/>
		<rect x="362" y="170" width="68" height="84" fill="none" stroke="#5aae61" stroke-width="2" opacity="1"/>
		<line x1="362" y1="195" x2="430" y2="195" stroke="#5aae61" stroke-width="1"/>
	</g>
	<text x="383" y="187.75" fill="#000000" font-family="Verdana" font-size="12">quiz</text>
	<text x="367" y="212.8" fill="#000000" font-family="Verdana" font-size="12">code quiz</text>
	<line x1="367" y1="215" x2="425" y2="215" stroke="#000000" stroke-width="1"/>
	<text x="367" y="229.8" fill="#000000" font-family="Verdana" font-size="12">title</text>
	<text x="367" y="246.8" fill="#000000" font-family="Verdana" font-size="12">thematic</text>
</g>

<!-- Entity RESPONSE -->
<g>
	<g>
		<rect x="9" y="279" width="98" height="25" fill="#a6dba0" stroke="none" stroke-width="0" opacity="1"/>
		<rect x="9" y="304" width="98" height="43" fill="#d9f0d3" stroke="none" stroke-width="0" opacity="1"/>
		<rect x="9" y="279" width="98" height="68" fill="none" stroke="#5aae61" stroke-width="2" opacity="1"/>
		<line x1="9" y1="304" x2="107" y2="304" stroke="#5aae61" stroke-width="1"/>
	</g>
	<text x="31" y="296.75" fill="#000000" font-family="Verdana" font-size="12">response</text>
	<text x="14" y="321.8" fill="#000000" font-family="Verdana" font-size="12">code response</text>
	<line x1="14" y1="324" x2="102" y2="324" stroke="#000000" stroke-width="1"/>
	<text x="14" y="338.8" fill="#000000" font-family="Verdana" font-size="12">title</text>
</g>

<!-- Entity CATEGORY -->
<g>
	<g>
		<rect x="237" y="279" width="96" height="25" fill="#a6dba0" stroke="none" stroke-width="0" opacity="1"/>
		<rect x="237" y="304" width="96" height="43" fill="#d9f0d3" stroke="none" stroke-width="0" opacity="1"/>
		<rect x="237" y="279" width="96" height="68" fill="none" stroke="#5aae61" stroke-width="2" opacity="1"/>
		<line x1="237" y1="304" x2="333" y2="304" stroke="#5aae61" stroke-width="1"/>
	</g>
	<text x="259" y="296.75" fill="#000000" font-family="Verdana" font-size="12">category</text>
	<text x="242" y="321.8" fill="#000000" font-family="Verdana" font-size="12">code category</text>
	<line x1="242" y1="324" x2="328" y2="324" stroke="#000000" stroke-width="1"/>
	<text x="242" y="338.8" fill="#000000" font-family="Verdana" font-size="12">name</text>
</g>
</svg>